<?xml version="1.0" standalone="no"?><!DOCTYPE svg PUBLIC "-//W3C//DTD SVG 1.1//EN" "http://www.w3.org/Graphics/SVG/1.1/DTD/svg11.dtd"><svg t="1783320360773" class="icon" viewBox="0 0 1024 1024" version="1.1" xmlns="http://www.w3.org/2000/svg" p-id="3512" xmlns:xlink="http://www.w3.org/1999/xlink" width="200" height="200"><path d="M469.3504 960h-256q-26.5216 0-45.2608-18.7392t-18.7392-45.2608v-768q0-26.5216 18.7392-45.2608t45.2608-18.7392h448c6.0416 0 11.776 2.56 15.872 7.0656l192 213.3504a21.3504 21.3504 0 0 1 5.4272 14.2336v192h-0.0512a21.248 21.248 0 1 1-42.496 0h-0.1024v-183.808l-180.1728-200.192H213.3504q-21.3504 0-21.3504 21.3504v768q0 8.8576 6.2464 15.104t15.104 6.2464h256v0.0512a21.248 21.248 0 1 1 0 42.496v0.1024z" fill="#333333" p-id="3513"></path><path d="M661.3504 874.6496a149.3504 149.3504 0 1 0 0-298.6496 149.3504 149.3504 0 0 0 0 298.6496z m0-256a106.6496 106.6496 0 1 1 0 213.3504 106.6496 106.6496 0 0 1 0-213.3504z" fill="#333333" p-id="3514"></path><path d="M781.312 794.0096v0.0512a21.248 21.248 0 1 0-26.624 33.1776v0.1024l106.6496 85.2992 0.0512-0.0512a21.248 21.248 0 0 0 26.5728-33.1776v-0.0512l-106.6496-85.3504zM640 64.1024a21.248 21.248 0 0 0-21.248 21.248h-0.1024v213.2992c0 11.776 9.5744 21.3504 21.3504 21.3504h213.3504v-0.1024a21.248 21.248 0 0 0 0-42.496v-0.0512h-192v-192h-0.1024a21.248 21.248 0 0 0-21.248-21.248z" fill="#333333" p-id="3515"></path></svg>