<?xml version="1.0" standalone="no"?><!DOCTYPE svg PUBLIC "-//W3C//DTD SVG 1.1//EN" "http://www.w3.org/Graphics/SVG/1.1/DTD/svg11.dtd"><svg t="1783320323463" class="icon" viewBox="0 0 1024 1024" version="1.1" xmlns="http://www.w3.org/2000/svg" p-id="3197" xmlns:xlink="http://www.w3.org/1999/xlink" width="200" height="200"><path d="M896 149.4016a21.248 21.248 0 0 0-21.248 21.248h-0.1024V512h0.1024a21.248 21.248 0 0 0 42.496 0h0.1024V170.6496h-0.1024a21.248 21.248 0 0 0-21.248-21.248zM128 490.752a21.248 21.248 0 0 0-21.248 21.248h-0.1024v341.3504h0.1024a21.248 21.248 0 0 0 42.496 0h0.1024V512h-0.1024a21.248 21.248 0 0 0-21.248-21.248z" fill="#333333" p-id="3198"></path><path d="M220.3648 230.5024Q339.9168 106.6496 512 106.6496q167.936 0 286.6176 118.784Q917.3504 344.064 917.3504 512h-0.1024a21.248 21.248 0 1 1-42.496 0h-0.1024q0-150.2208-106.1888-256.4608Q662.2208 149.3504 512 149.3504q-153.9584 0-260.9664 110.7968l-0.0512-0.0512a21.248 21.248 0 1 1-30.5664-29.5424h-0.0512zM128 490.752c11.776 0 21.248 9.5232 21.248 21.248h0.1024q0 150.2208 106.1888 256.4608Q361.7792 874.6496 512 874.6496q146.4832 0 251.8528-101.6832l0.0512 0.0512a21.248 21.248 0 0 1 29.5424 30.5664v0.0512q-117.76 113.664-281.4464 113.664-167.936 0-286.6176-118.6816Q106.6496 679.8848 106.6496 512h0.1024c0-11.776 9.5232-21.248 21.248-21.248z" fill="#333333" p-id="3199"></path></svg>